<?xml version="1.0" encoding="UTF-8" standalone="no" ?>
<!DOCTYPE svg PUBLIC "-//W3C//DTD SVG 1.1//EN" "http://www.w3.org/Graphics/SVG/1.1/DTD/svg11.dtd">
<svg xmlns="http://www.w3.org/2000/svg" xmlns:xlink="http://www.w3.org/1999/xlink" version="1.1" width="70" height="70" viewBox="0 0 250 250" xml:space="preserve">
<desc>Created with Fabric.js 4.2.0</desc>
<defs>
</defs>
<g transform="matrix(1 0 0 1 100 100)" id="eef1b072-6c83-4f1d-a22d-36c228f723cc"  >
<rect style="stroke: none; stroke-width: 1; stroke-dasharray: none; stroke-linecap: butt; stroke-dashoffset: 0; stroke-linejoin: miter; stroke-miterlimit: 4; fill: rgb(255,255,255); fill-rule: nonzero; opacity: 1;" vector-effect="non-scaling-stroke"  x="-100" y="-100" rx="0" ry="0" width="200" height="200" />
</g>
<g transform="matrix(0.35 0 0 0.45 132.08 101.23)"  >
<path style="stroke: none; stroke-width: 1; stroke-dasharray: none; stroke-linecap: butt; stroke-dashoffset: 0; stroke-linejoin: miter; stroke-miterlimit: 4; fill: rgb(255,188,171); fill-rule: nonzero; opacity: 1;" vector-effect="non-scaling-stroke"  transform=" translate(-381.15, -256)" d="M 359.149 110.866 L 258.028 110.866 L 258.028 237.603 L 359.15 237.603 C 387.83299999999997 237.603 412.067 264.488 412.067 296.312 C 412.067 328.135 387.833 355.021 359.15 355.021 L 290.73 355.021 L 290.73 401.12800000000004 L 359.15000000000003 401.12800000000004 C 438.97200000000004 401.12800000000004 504.28000000000003 335.8190000000001 504.28000000000003 255.99800000000005 L 504.28000000000003 255.99800000000005 C 504.28 176.175 438.971 110.866 359.149 110.866 z" stroke-linecap="round" />
</g>
<g transform="matrix(0.35 0 0 0.45 141.79 77.82)"  >
<path style="stroke: none; stroke-width: 1; stroke-dasharray: none; stroke-linecap: butt; stroke-dashoffset: 0; stroke-linejoin: miter; stroke-miterlimit: 4; fill: rgb(255,188,171); fill-rule: nonzero; opacity: 1;" vector-effect="non-scaling-stroke"  transform=" translate(-408.53, -203.59)" d="M 503.111 237.604 C 494 166.382 432.743 110.86700000000002 359.149 110.86700000000002 L 313.942 110.86700000000002 L 319.115 237.604 L 359.15 237.604 C 387.83299999999997 237.604 412.067 264.48900000000003 412.067 296.313 C 490.166 296.774 503.104 237.637 503.111 237.604 z" stroke-linecap="round" />
</g>
<g transform="matrix(0.35 0 0 0.45 114.95 64.75)"  >
<path style="stroke: none; stroke-width: 1; stroke-dasharray: none; stroke-linecap: butt; stroke-dashoffset: 0; stroke-linejoin: miter; stroke-miterlimit: 4; fill: rgb(255,148,120); fill-rule: nonzero; opacity: 1;" vector-effect="non-scaling-stroke"  transform=" translate(-332.87, -174.32)" d="M 362.97 237.782 C 428.247 194.37400000000002 402.83500000000004 117.635 402.834 117.63300000000001 C 389.032 113.24300000000001 374.356 110.867 359.149 110.867 L 258.028 110.867 L 258.028 237.60399999999998 L 359.15 237.60399999999998 C 360.434 237.603 361.705 237.676 362.97 237.782 z" stroke-linecap="round" />
</g>
<g transform="matrix(0.35 0 0 0.45 150.01 119.66)"  >
<path style="stroke: none; stroke-width: 1; stroke-dasharray: none; stroke-linecap: butt; stroke-dashoffset: 0; stroke-linejoin: miter; stroke-miterlimit: 4; fill: rgb(255,148,120); fill-rule: nonzero; opacity: 1;" vector-effect="non-scaling-stroke"  transform=" translate(-431.71, -297.26)" d="M 401.227 261.21 C 407.99699999999996 271.07899999999995 412.066 283.279 412.066 296.31199999999995 C 412.066 327.4789999999999 388.818 353.893 360.91299999999995 354.96999999999997 C 360.347 354.99999999999994 359.76699999999994 355.02099999999996 359.155 355.02099999999996 C 359.15299999999996 355.02099999999996 359.15099999999995 355.02099999999996 359.149 355.02099999999996 C 359.152 355.02399999999994 395.897 388.40299999999996 449.188 369.60499999999996 C 482.697 342.96 504.279 301.87899999999996 504.279 255.99699999999996 L 504.279 255.99699999999996 C 504.279 243.28399999999996 502.616 230.94199999999995 499.508 219.17099999999996 L 401.227 261.21 z" stroke-linecap="round" />
</g>
<g transform="matrix(0.35 0 0 0.45 115.42 104.82)"  >
<path style="stroke: none; stroke-width: 1; stroke-dasharray: none; stroke-linecap: butt; stroke-dashoffset: 0; stroke-linejoin: miter; stroke-miterlimit: 4; fill: rgb(255,121,86); fill-rule: nonzero; opacity: 1;" vector-effect="non-scaling-stroke"  transform=" translate(-334.21, -264.03)" d="M 418.241 264.028 C 418.161 232.205 394.007 205.31900000000002 365.32399999999996 205.31900000000002 L 250.183 205.31900000000002 L 258.028 237.603 L 359.15 237.603 C 387.83299999999997 237.603 412.067 264.488 412.067 296.312 C 412.067 305.747 409.923 314.74 406.17900000000003 322.735 L 406.184 322.735 C 406.183 322.734 418.342 303.855 418.241 264.028 z" stroke-linecap="round" />
</g>
<g transform="matrix(0.35 0 0 0.45 110.37 85.84)"  >
<path style="stroke: none; stroke-width: 1; stroke-dasharray: none; stroke-linecap: butt; stroke-dashoffset: 0; stroke-linejoin: miter; stroke-miterlimit: 4; fill: rgb(255,121,86); fill-rule: nonzero; opacity: 1;" vector-effect="non-scaling-stroke"  transform=" translate(-319.96, -221.55)" d="M 365.325 205.319 L 250.183 205.319 L 258.028 237.60299999999998 L 359.15 237.60299999999998 C 360.43399999999997 237.60299999999998 361.70599999999996 237.67499999999998 362.969 237.78099999999998 C 374.52299999999997 230.09799999999998 383.225 221.36799999999997 389.74 212.206 C 382.391 207.83 374.072 205.319 365.325 205.319 z" stroke-linecap="round" />
</g>
<g transform="matrix(0.35 0 0 0.45 137.8 136.07)"  >
<path style="stroke: none; stroke-width: 1; stroke-dasharray: none; stroke-linecap: butt; stroke-dashoffset: 0; stroke-linejoin: miter; stroke-miterlimit: 4; fill: rgb(255,148,120); fill-rule: nonzero; opacity: 1;" vector-effect="non-scaling-stroke"  transform=" translate(-397.3, -333.98)" d="M 503.873 266.836 L 503.873 266.836 C 485.39799999999997 325.772 430.147 368.844 365.32399999999996 368.844 L 290.73 368.844 L 290.73 401.128 L 359.15000000000003 401.128 C 435.326 401.128 498.281 341.647 503.873 266.836 z" stroke-linecap="round" />
</g>
<g transform="matrix(0.35 0 0 0.45 153.79 130.32)"  >
<path style="stroke: none; stroke-width: 1; stroke-dasharray: none; stroke-linecap: butt; stroke-dashoffset: 0; stroke-linejoin: miter; stroke-miterlimit: 4; fill: rgb(255,121,86); fill-rule: nonzero; opacity: 1;" vector-effect="non-scaling-stroke"  transform=" translate(-442.35, -321.12)" d="M 380.835 368.012 C 396.782 374.754 420.60999999999996 379.691 449.205 369.605 C 480.039 345.087 500.759 308.34200000000004 503.873 266.885 C 486.876 321.039 438.824 361.785 380.835 368.012 z" stroke-linecap="round" />
</g>
<g transform="matrix(0.35 0 0 0.45 92.84 148.55)"  >
<path style="stroke: none; stroke-width: 1; stroke-dasharray: none; stroke-linecap: butt; stroke-dashoffset: 0; stroke-linejoin: miter; stroke-miterlimit: 4; fill: rgb(255,98,67); fill-rule: nonzero; opacity: 1;" vector-effect="non-scaling-stroke"  transform=" translate(-270.55, -361.93)" d="M 223.876 323.322 C 223.846 323.314 205.613 318.151 205.613 338.594 L 205.613 385.854 C 205.613 394.289 212.451 401.127 220.886 401.127 L 335.48199999999997 401.127 L 335.48199999999997 355.02 L 223.876 323.322 z" stroke-linecap="round" />
</g>
<g transform="matrix(0.35 0 0 0.45 79.25 142.06)"  >
<path style="stroke: none; stroke-width: 1; stroke-dasharray: none; stroke-linecap: butt; stroke-dashoffset: 0; stroke-linejoin: miter; stroke-miterlimit: 4; fill: rgb(205,42,0); fill-rule: nonzero; opacity: 1;" vector-effect="non-scaling-stroke"  transform=" translate(-232.24, -347.4)" d="M 252.467 345.204 L 206.282 332.559 C 205.86 334.273 205.613 336.259 205.613 338.595 L 205.613 350.302 L 247.899 361.88100000000003 C 248.664 362.09000000000003 256.07 364.064 258.52 355.826 C 259.882 351.249 257.07 346.465 252.467 345.204 z" stroke-linecap="round" />
</g>
<g transform="matrix(0.35 0 0 0.45 79.24 156.09)"  >
<path style="stroke: none; stroke-width: 1; stroke-dasharray: none; stroke-linecap: butt; stroke-dashoffset: 0; stroke-linejoin: miter; stroke-miterlimit: 4; fill: rgb(205,42,0); fill-rule: nonzero; opacity: 1;" vector-effect="non-scaling-stroke"  transform=" translate(-232.22, -378.82)" d="M 250.183 370.171 L 205.613 370.171 L 205.613 385.855 C 205.613 386.397 205.644 386.933 205.698 387.461 L 250.18200000000002 387.461 C 254.95600000000002 387.461 258.826 383.59000000000003 258.826 378.81600000000003 C 258.827 374.04 254.957 370.171 250.183 370.171 z" stroke-linecap="round" />
</g>
<g transform="matrix(0.35 0 0 0.45 135.43 94.57)"  >
<path style="stroke: none; stroke-width: 1; stroke-dasharray: none; stroke-linecap: butt; stroke-dashoffset: 0; stroke-linejoin: miter; stroke-miterlimit: 4; fill: rgb(255,148,120); fill-rule: nonzero; opacity: 1;" vector-effect="non-scaling-stroke"  transform=" translate(-390.61, -241.09)" d="M 418.241 264.028 C 418.185 241.931 406.517 222.22500000000002 389.792 212.23700000000002 C 379.99899999999997 226.79300000000003 363.54499999999996 237.67700000000002 362.96999999999997 237.78200000000004 C 381.59 239.34000000000003 397.87399999999997 252.15700000000004 406.18499999999995 269.93800000000005 L 418.241 264.028 z" stroke-linecap="round" />
</g>
<g transform="matrix(0.35 0 0 0.45 142.21 115.76)"  >
<path style="stroke: none; stroke-width: 1; stroke-dasharray: none; stroke-linecap: butt; stroke-dashoffset: 0; stroke-linejoin: miter; stroke-miterlimit: 4; fill: rgb(255,121,86); fill-rule: nonzero; opacity: 1;" vector-effect="non-scaling-stroke"  transform=" translate(-409.73, -288.51)" d="M 401.228 261.211 C 407.997 271.08000000000004 412.06600000000003 283.28000000000003 412.06600000000003 296.312 C 412.06600000000003 305.747 409.922 314.74 406.17800000000005 322.735 L 406.18300000000005 322.735 C 406.18300000000005 322.735 418.34100000000007 303.855 418.24100000000004 264.028 C 418.23300000000006 260.719 417.95000000000005 257.468 417.44300000000004 254.29000000000002 L 401.22700000000003 261.21000000000004 C 401.228 261.21 401.228 261.211 401.228 261.211 z" stroke-linecap="round" />
</g>
<g transform="matrix(0.35 0 0 0.45 63.31 64.71)"  >
<path style="stroke: none; stroke-width: 1; stroke-dasharray: none; stroke-linecap: butt; stroke-dashoffset: 0; stroke-linejoin: miter; stroke-miterlimit: 4; fill: rgb(255,98,67); fill-rule: nonzero; opacity: 1;" vector-effect="non-scaling-stroke"  transform=" translate(-187.31, -174.23)" d="M 258.028 110.866 C 293.02500000000003 110.866 297.44 139.237 297.44 174.234 C 297.44 209.23100000000002 293.026 237.602 258.028 237.602 C 223.03000000000003 237.602 77.18 225.628 77.18 174.234 C 77.18 123.839 223.03 110.866 258.028 110.866 z" stroke-linecap="round" />
</g>
<g transform="matrix(0.35 0 0 0.45 63.04 72.56)"  >
<path style="stroke: none; stroke-width: 1; stroke-dasharray: none; stroke-linecap: butt; stroke-dashoffset: 0; stroke-linejoin: miter; stroke-miterlimit: 4; fill: rgb(255,80,35); fill-rule: nonzero; opacity: 1;" vector-effect="non-scaling-stroke"  transform=" translate(-186.54, -191.81)" d="M 95.826 146.019 C 84.32799999999999 153.77 77.17999999999999 163.084 77.17999999999999 174.235 C 77.17999999999999 225.62800000000001 223.031 237.603 258.028 237.603 C 283.457 237.603 292.733 222.619 295.909 201.00400000000002 C 290.78 203.734 284.371 205.247 276.331 205.247 C 242.294 205.248 103.429 193.916 95.826 146.019 z" stroke-linecap="round" />
</g>
<g transform="matrix(0.35 0 0 0.45 50.85 46.62)"  >
<path style="stroke: none; stroke-width: 1; stroke-dasharray: none; stroke-linecap: butt; stroke-dashoffset: 0; stroke-linejoin: miter; stroke-miterlimit: 4; fill: rgb(0,255,83); fill-rule: nonzero; opacity: 1;" vector-effect="non-scaling-stroke"  transform=" translate(-152.18, -133.73)" d="M 152.176 154.858 C 146.59699999999998 154.858 141.16 152.603 137.24599999999998 148.66 C 133.301 144.744 131.04799999999997 139.279 131.04799999999997 133.73 C 131.04799999999997 128.179 133.301 122.71399999999998 137.24599999999998 118.79799999999999 C 141.16099999999997 114.85399999999998 146.59699999999998 112.60099999999998 152.176 112.60099999999998 C 157.75199999999998 112.60099999999998 163.19199999999998 114.85399999999998 167.106 118.79799999999999 C 171.051 122.71399999999998 173.304 128.17899999999997 173.304 133.73 C 173.304 139.278 171.051 144.744 167.106 148.66 C 163.191 152.603 157.753 154.858 152.176 154.858 z" stroke-linecap="round" />
</g>
<g transform="matrix(0.35 0 0 0.45 153.4 66.23)"  >
<path style="stroke: none; stroke-width: 1; stroke-dasharray: none; stroke-linecap: butt; stroke-dashoffset: 0; stroke-linejoin: miter; stroke-miterlimit: 4; fill: rgb(255,148,120); fill-rule: nonzero; opacity: 1;" vector-effect="non-scaling-stroke"  transform=" translate(-441.28, -177.63)" d="M 443.722 191.315 C 439.02 185.188 433.633 179.552 427.712 174.565 C 424.452 171.81799999999998 424.036 166.949 426.783 163.688 C 429.528 160.427 434.399 160.012 437.659 162.759 C 444.43 168.463 450.59 174.909 455.969 181.91699999999997 C 458.565 185.29899999999998 458.03 190.28299999999996 454.546 192.73999999999998 C 449.733 196.132 445.241 193.295 443.722 191.315 z" stroke-linecap="round" />
</g>
<g transform="matrix(0.35 0 0 0.45 160.89 79.42)"  >
<path style="stroke: none; stroke-width: 1; stroke-dasharray: none; stroke-linecap: butt; stroke-dashoffset: 0; stroke-linejoin: miter; stroke-miterlimit: 4; fill: rgb(255,148,120); fill-rule: nonzero; opacity: 1;" vector-effect="non-scaling-stroke"  transform=" translate(-462.39, -207.17)" d="M 456.13 211.944 C 455.679 210.95499999999998 455.212 209.97299999999998 454.733 209 C 452.848 205.176 454.419 200.548 458.243 198.664 C 462.069 196.78 466.695 198.351 468.579 202.17499999999998 C 469.127 203.28599999999997 469.66 204.40599999999998 470.175 205.535 C 471.945 209.413 470.103 213.727 466.357 215.762 C 462.39 217.916 457.426 214.783 456.13 211.944 z" stroke-linecap="round" />
</g>
<g transform="matrix(0.35 0 0 0.45 73.88 37.56)"  >
<path style="stroke: none; stroke-width: 1; stroke-dasharray: none; stroke-linecap: butt; stroke-dashoffset: 0; stroke-linejoin: miter; stroke-miterlimit: 4; fill: rgb(0,253,255); fill-rule: nonzero; opacity: 1;" vector-effect="non-scaling-stroke"  transform=" translate(-217.1, -113.46)" d="M 214.109 121.543 C 216.697 121.257 219.231 120.99300000000001 221.70000000000002 120.75200000000001 C 225.942 120.33800000000001 229.04600000000002 116.56200000000001 228.632 112.32000000000001 C 228.217 108.078 224.464 104.97200000000001 220.199 105.388 C 217.667 105.635 215.067 105.906 212.413 106.19900000000001 C 208.17600000000002 106.668 205.10000000000002 110.48500000000001 205.589 114.72000000000001 C 206.454 122.2 213.822 121.575 214.109 121.543 z" stroke-linecap="round" />
</g>
</svg>